<svg version="1.1" id="Layer_1" xmlns="http://www.w3.org/2000/svg" x="0" y="0" viewBox="-105.5 358.5 402 77" enable-background="new -105.5 358.5 402 77" xml:space="preserve"><path fill="#676767" d="M95.3 418.5c-1.9 1-3.9 1.5-6.1 1.5-3.6 0-6.7-1.2-9.3-3.6-2.7-2.4-4-5.7-4-10s1.3-7.6 4-10c2.7-2.4 5.8-3.6 9.5-3.6 1.9 0 3.8.4 5.8 1.1l8.8-9.1c-1.3-.8-2.6-1.5-4.1-2.1-3.7-1.5-7.4-2.3-11-2.3-7.3 0-13.5 2.4-18.8 7.3-5.3 4.9-7.9 11.1-7.9 18.9 0 7.7 2.6 14 7.8 18.8 5.2 4.8 11.6 7.2 19.2 7.2 5.2 0 10.2-1.6 14.9-4.8l-8.8-9.3zM37 431.7H22.9V362H37v69.7zM57.8 431.7H43.7v-50.5h14.1v50.5z"/><path fill="#989898" d="M45.5 374.7c-1.4-1.4-2.1-3.2-2.1-5.2s.7-3.8 2.1-5.2c1.4-1.4 3.2-2.1 5.2-2.1 2.1 0 3.8.7 5.2 2.1 1.4 1.4 2.1 3.2 2.1 5.2s-.7 3.8-2.1 5.2c-1.4 1.4-3.2 2.1-5.2 2.1s-3.8-.7-5.2-2.1z"/><path fill="#676767" d="M122.4 431.7h-13.7V362h13.7v35.8l15.7-16.7h17.7l-19.2 20.5 20 30.1h-16.7L127 412.4l-4.6 4.8v14.5z"/><path fill="#989898" d="M234.8 416.7c-2.8 2.2-5.8 3.3-9 3.3-3.6 0-6.7-1.2-9.3-3.6-2.7-2.4-4-5.7-4-10s1.3-7.6 4-10c2.7-2.4 5.8-3.6 9.5-3.6 2.3 0 4.6.5 7 1.6.7.3 1.4.7 2 1.1 1.3-3.8 3.4-7.3 6.1-10.4-1.5-1-3-1.8-4.7-2.4-3.7-1.5-7.4-2.3-11-2.3-7.3 0-13.5 2.4-18.8 7.3-5.3 4.9-7.9 11.1-7.9 18.9 0 7.7 2.6 14 7.8 18.8 5.2 4.8 11.6 7.2 19.2 7.2 5.3 0 10.3-1.7 15.1-5-2.8-3.4-4.8-7-6-10.9z"/><path fill="#676767" d="M190.5 405.3c-1.9-1.1-3.5-2-4.8-2.5-1.3-.5-3.6-1.3-6.8-2.3-3.2-1-5.5-1.9-6.8-2.6-1.4-.8-2.1-1.8-2.1-3.1 0-2.4 2.2-3.6 6.5-3.6 3.4 0 6.8.9 10.2 2.7l7.6-8c-5.8-3.8-11.5-5.7-17.3-5.7-5.9 0-10.8 1.5-14.5 4.4-3.8 2.9-5.6 6.7-5.6 11.4s1.9 8.2 5.7 10.6c1.9 1.2 3.6 2.1 5 2.7 1.5.6 3.6 1.4 6.4 2.3 2.8.9 4.9 1.8 6.4 2.8 1.5 1 2.2 2.1 2.2 3.3s-.5 2.1-1.6 2.9c-1.1.7-2.5 1.1-4.3 1.1-5.4 0-10.6-1.7-15.4-5.1l-5.8 6.1 3.5 5.2c1.8 1 3.8 1.8 5.8 2.5 4.1 1.3 8 2 11.7 2 5.6 0 10.3-1.5 13.9-4.5 3.7-3 5.5-7 5.5-12-.2-4.9-1.9-8.4-5.4-10.6z"/><path fill="#989898" d="M293.5 406.4c0 7.3-2.5 13.5-7.6 18.5s-11.8 7.5-19.5 7.5c-7.7 0-14-2.5-19.1-7.5-5.1-5-7.6-11.2-7.6-18.5 0-7.3 2.5-13.5 7.6-18.5s11.4-7.6 19.1-7.6c7.7 0 14.4 2.5 19.5 7.6 5 5 7.6 11.2 7.6 18.5zm-39.6 0c0 4.1 1.2 7.5 3.5 10.1 2.3 2.6 5.3 3.9 9 3.9s6.7-1.3 9-3.9c2.3-2.6 3.5-6 3.5-10.1s-1.2-7.5-3.5-10.1c-2.3-2.6-5.4-3.9-9-3.9-3.7 0-6.7 1.3-9 3.9-2.4 2.6-3.5 6-3.5 10.1z"/><path fill="#676767" d="M9.6 418.5c-1.9 1-3.9 1.5-6.1 1.5-3.6 0-6.7-1.2-9.3-3.6-2.7-2.4-4-5.7-4-10s1.3-7.6 4-10c2.7-2.4 5.8-3.6 9.5-3.6 1.9 0 3.8.4 5.8 1.1l8.8-9.1c-1.3-.8-2.6-1.5-4.1-2.1-3.7-1.5-7.4-2.3-11-2.3-7.3 0-13.5 2.4-18.8 7.3-5.3 4.9-7.9 11.1-7.9 18.9 0 7.7 2.6 14 7.8 18.8 5.2 4.8 11.6 7.2 19.2 7.2 5.2 0 10.2-1.6 14.9-4.8l-8.8-9.3z"/><path fill="#0E89C3" d="M-99.9 403z"/><path opacity=".8" fill="#fff" enable-background="new" d="M-99.9 403z"/><path fill="#00AEEF" d="M-79.3 391.8c-9.3.9-14.2 3-21.9 8.4-1.2 1.5-2.1 3.2-2.9 5 2.6 11.6 10.5 21.2 21.1 26.1-.6-.3 11.1-3.5 15.8-11.1-4.9-5.5-8.8-13-10.9-21.6-.6-2.3-.9-4.6-1.2-6.8z"/><path fill="#FFCF2B" d="M-55.2 391.7c-.2 2.2-.6 4.5-1.1 6.8-2 8.6-6 16.1-10.9 21.6 5.1 5.8 11.3 9.5 17.7 10.2 9.7-5.2 16.9-14.5 19.2-25.6-.8-1.7-1.8-3.3-2.9-4.8-7.8-5.2-12.6-7.3-22-8.2z"/><path fill="#C652B4" d="M-65.1 359.3c-1.5-.1-2.9-.1-4.4 0-6.7 5.9-10.4 16.4-10.1 28.2 3.8-.9 7.8-1.4 11.9-1.5 4.4-.1 8.7.4 12.7 1.3.3-11.7-3.4-22.1-10.1-28zm-2.3 24.4c-3.2-.1-5.7-2.7-5.6-5.8.1-3.2 2.7-5.7 5.8-5.6 3.2.1 5.7 2.7 5.6 5.8 0 3.2-2.6 5.7-5.8 5.6z"/><path fill="#785CA5" d="M-69.4 359.3h-.2c-.5 0-.9.1-1.4.1-.2 0-.4 0-.5.1-.4 0-.8.1-1.2.2-.2 0-.5.1-.7.1-.3.1-.6.1-1 .2-.3.1-.7.1-1 .2-.2.1-.5.1-.7.2l-1.2.3c-.1 0-.3.1-.4.1-.5.1-1 .3-1.4.5-.1 0-.1 0-.2.1-.5.2-1.1.4-1.6.6-2.8 1.1-5.5 2.6-7.9 4.3-.5.3-.9.7-1.4 1l-.1.1c-.4.3-.8.6-1.2 1-.1.1-.2.1-.2.2-.3.3-.7.6-1 .9l-.3.3-.8.8-.4.4c-.2.2-.5.5-.7.8-.2.2-.4.4-.5.6-.2.2-.4.4-.6.7-.3.4-.7.9-1 1.3-.2.3-.4.5-.6.8-.1.2-.2.3-.4.5-.2.3-.5.7-.7 1-.1.1-.2.3-.3.4-.2.4-.5.8-.7 1.2-.1.1-.1.2-.2.3-.3.5-.5.9-.7 1.4 0 0 0 .1-.1.1-.3.7-.7 1.4-1 2.1v.1c-.3.7-.6 1.4-.8 2.1v.1c-.2.7-.5 1.4-.7 2.1v.2c-.2.7-.4 1.4-.5 2.1V389.2c-.1.6-.2 1.1-.3 1.7 0 .2 0 .3-.1.5-.1.5-.2 1-.2 1.6 0 .2 0 .5-.1.7 0 .5-.1.9-.1 1.4v4.8c0 .5.1 1 .1 1.4v.4c.1.5.1 1.1.2 1.6 0 .1.5 2.6.5 2.6l.1-.5c3-8.2 12.8-14.8 24.4-17.6-.6-12.1 3.2-22.5 9.8-28.5z"/><path fill="#EB4D97" d="M-29.5 396.7V394.8c0-.5-.1-1-.1-1.5 0-.2 0-.4-.1-.6 0-.4-.1-.8-.1-1.2-.1-.3-.1-.7-.2-1 0-.2-.1-.5-.1-.7-.1-.5-.2-1-.3-1.6v-.1c-1.4-6-4.3-11.4-8.2-15.8l-.6-.6-.6-.6-1-1-.2-.2c-.4-.4-.8-.7-1.2-1.1l-.1-.1c-.4-.4-.8-.7-1.2-1l-.1-.1-1.2-.9-.2-.2c-.4-.3-.8-.5-1.1-.8-.1-.1-.2-.2-.4-.2-.3-.2-.7-.4-1-.7-.2-.1-.3-.2-.5-.3-.3-.2-.6-.3-.9-.5-.2-.1-.5-.3-.7-.4-.2-.1-.5-.3-.8-.4-.3-.2-.6-.3-1-.5l-.6-.3c-.4-.2-.8-.4-1.2-.5-.1 0-.3-.1-.4-.1-.5-.2-1-.4-1.5-.5-.1 0-.1 0-.2-.1-.6-.2-1.1-.4-1.7-.5-.6-.2-1.2-.3-1.8-.5-.6-.1-1.2-.2-1.8-.4h-.2c-.5-.1-1-.1-1.5-.2-.2 0-.3 0-.5-.1-.3 0-.7-.1-1-.1-.3 0-.7-.1-1-.1h-.1c6.6 5.9 10.4 16.3 10.1 28 11.7 2.7 20.9 9.2 24.6 17.4 0-.2.1-.4.1-.6.2-1.1.4-2.1.5-3.1 0-.4.1-.8.1-1.2 0-.3 0-.6.1-.8v-2c-.1-.1-.1-.2-.1-.3z"/><path fill="#6CAB36" d="M-49.6 430.3c-6.3-.7-12.6-4.4-17.7-10.2-5.1 5.8-11.4 9.5-17.7 10.2.6.3 1.3.6 1.9.9.1 0 .2.1.3.1.6.3 1.2.5 1.8.7.1 0 .2.1.3.1.7.2 1.3.5 2 .7h.1c.7.2 1.4.4 2.2.6h.1c.7.2 1.3.3 2 .4.2 0 .4.1.6.1.5.1 1 .2 1.5.2.2 0 .5.1.7.1.5.1 1 .1 1.5.1.2 0 .4 0 .7.1.7 0 1.5.1 2.2.1.7 0 1.5 0 2.2-.1.2 0 .4 0 .7-.1.5 0 1-.1 1.5-.1.2 0 .5-.1.7-.1.5-.1 1-.1 1.5-.2.2 0 .4-.1.6-.1.7-.1 1.3-.3 2-.4h.1c.7-.2 1.5-.4 2.2-.6h.1c.7-.2 1.3-.4 2-.7.1 0 .2-.1.3-.1.6-.2 1.2-.5 1.8-.7.1 0 .2-.1.3-.1.3-.2.9-.5 1.5-.9z"/></svg>